<?xml version="1.0" encoding="utf-8"?>
<!-- Generator: Adobe Illustrator 27.7.0, SVG Export Plug-In . SVG Version: 6.00 Build 0)  -->
<svg version="1.1" id="Layer_1" xmlns="http://www.w3.org/2000/svg" xmlns:xlink="http://www.w3.org/1999/xlink" x="0px" y="0px"
	 viewBox="0 0 300 64" style="enable-background:new 0 0 300 64;" xml:space="preserve">
<style type="text/css">
	.st0{fill:none;stroke:#000000;stroke-width:11.9605;stroke-miterlimit:3.9868;}
</style>
<path class="st0" d="M1.4,55.6H145"/>
<g>
	<g transform="translate(12.544592, 51.755883)">
		<g>
			<path d="M-11.2-48.7h10.9v29.9h18.4v8.6h-29.2V-48.7z"/>
		</g>
	</g>
</g>
<g>
	<g transform="translate(41.26675, 51.755883)">
		<g>
			<path d="M24.2-17.7H7.9l-3,7.5H-6.2l17-38.5h10.7l17,38.5H27.2L24.2-17.7z M21-25.7L16-38l-4.9,12.3H21z"/>
		</g>
	</g>
</g>
<g>
	<g transform="translate(77.241468, 51.755883)">
		<g>
			<path d="M47-48.7v38.5h-9L21-30.7v20.5H10.4v-38.5h9l17,20.5v-20.5H47z"/>
		</g>
	</g>
</g>
<g>
	<g transform="translate(114.040345, 51.755883)">
		<g>
			<path d="M22.7-48.7h18.2c4.2,0,7.9,0.8,11.2,2.4c3.3,1.6,5.8,3.8,7.6,6.7c1.8,2.9,2.7,6.3,2.7,10.2c0,3.9-0.9,7.3-2.7,10.2
				c-1.8,2.9-4.3,5.1-7.6,6.7c-3.3,1.6-7,2.4-11.2,2.4H22.7V-48.7z M40.4-18.9c3.3,0,5.9-0.9,7.9-2.8c2-1.9,3-4.5,3-7.8
				c0-3.3-1-5.9-3-7.8c-2-1.9-4.6-2.8-7.9-2.8h-6.9v21.1H40.4z"/>
		</g>
	</g>
</g>
<g>
	<g transform="translate(151.663377, 51.755883)">
		<g>
			<path d="M35.2-48.7h10.9v38.5H35.2V-48.7z"/>
		</g>
	</g>
</g>
<g>
	<g transform="translate(169.218239, 51.755883)">
		<g>
			<path d="M77.7-48.7v38.5h-9l-17-20.5v20.5H41.1v-38.5h9l17,20.5v-20.5H77.7z"/>
		</g>
	</g>
</g>
<g>
	<g transform="translate(206.017121, 51.755883)">
		<g>
			<path d="M79.1-30.3h9.6v15.9c-2.2,1.6-4.7,2.8-7.6,3.6c-2.8,0.8-5.7,1.2-8.6,1.2c-4,0-7.7-0.8-10.9-2.5c-3.2-1.7-5.8-4.1-7.6-7.1
				c-1.8-3-2.7-6.5-2.7-10.3c0-3.8,0.9-7.3,2.7-10.3c1.8-3,4.4-5.4,7.6-7.1c3.3-1.7,6.9-2.6,11.1-2.6c3.6,0,6.8,0.6,9.7,1.8
				c2.9,1.2,5.2,2.9,7.1,5.2l-6.9,6.3c-2.6-2.9-5.7-4.3-9.3-4.3c-3.3,0-6,1-8,3c-2,2-3,4.7-3,8c0,2.1,0.5,4,1.4,5.7
				c0.9,1.7,2.2,3,3.9,3.9c1.7,0.9,3.5,1.4,5.7,1.4c2.1,0,4-0.4,5.9-1.2V-30.3z"/>
		</g>
	</g>
</g>
<g>
	<g transform="translate(129.345134, 69.89667)">
		<g>
			<path d="M23.5-18.7c1.1,0,2,0.3,2.6,0.8c0.6,0.5,1,1.2,1,2.2c0,0.9-0.3,1.7-1,2.2c-0.6,0.5-1.5,0.8-2.6,0.8h-2.1v2.6h-1.2v-8.5
				H23.5z M23.5-13.8c0.8,0,1.3-0.2,1.8-0.5c0.4-0.3,0.6-0.8,0.6-1.4c0-0.6-0.2-1.1-0.6-1.4c-0.4-0.3-1-0.5-1.8-0.5h-2.1v3.8H23.5z"
				/>
		</g>
	</g>
</g>
<g>
	<g transform="translate(138.183587, 69.89667)">
		<g>
			<path d="M28.5-12.3H24l-0.9,2.1h-1.2l3.9-8.5h1.2l3.9,8.5h-1.3L28.5-12.3z M28.1-13.3l-1.8-4.2l-1.8,4.2H28.1z"/>
		</g>
	</g>
</g>
<g>
	<g transform="translate(147.113144, 69.89667)">
		<g>
			<path d="M32-14.5h1.2v3.3c-0.4,0.3-0.9,0.6-1.5,0.8c-0.6,0.2-1.1,0.3-1.8,0.3c-0.8,0-1.6-0.2-2.3-0.6c-0.7-0.4-1.2-0.9-1.6-1.6
				c-0.4-0.7-0.6-1.4-0.6-2.2c0-0.8,0.2-1.6,0.6-2.2c0.4-0.7,0.9-1.2,1.6-1.6c0.7-0.4,1.5-0.6,2.4-0.6c0.7,0,1.3,0.1,1.8,0.3
				c0.6,0.2,1,0.6,1.4,1l-0.8,0.8c-0.7-0.7-1.5-1-2.5-1c-0.7,0-1.2,0.1-1.8,0.4c-0.5,0.3-0.9,0.7-1.2,1.2c-0.3,0.5-0.4,1.1-0.4,1.7
				c0,0.6,0.1,1.2,0.4,1.7c0.3,0.5,0.7,0.9,1.2,1.2c0.5,0.3,1.1,0.4,1.7,0.4c0.8,0,1.4-0.2,2-0.5V-14.5z"/>
		</g>
	</g>
</g>
<g>
	<g transform="translate(156.407126, 69.89667)">
		<g>
			<path d="M35.4-11.2v1.1h-6.2v-8.5h6v1.1h-4.8v2.6h4.3v1h-4.3v2.7H35.4z"/>
		</g>
	</g>
</g>
<g>
	<g transform="translate(169.483208, 69.89667)">
		<g>
			<path d="M39.3-14.6c0.5,0.1,0.9,0.4,1.1,0.8c0.3,0.4,0.4,0.8,0.4,1.4c0,0.7-0.3,1.3-0.8,1.7c-0.6,0.4-1.4,0.6-2.4,0.6h-4.1v-8.5
				h3.8c1,0,1.7,0.2,2.2,0.6c0.5,0.4,0.8,0.9,0.8,1.6c0,0.4-0.1,0.8-0.3,1.2C39.9-15,39.6-14.8,39.3-14.6z M34.8-17.7v2.7h2.5
				c0.6,0,1.1-0.1,1.4-0.4c0.3-0.2,0.5-0.6,0.5-1c0-0.4-0.2-0.8-0.5-1c-0.3-0.2-0.8-0.4-1.4-0.4H34.8z M37.6-11.2
				c0.7,0,1.2-0.1,1.5-0.3c0.3-0.2,0.5-0.6,0.5-1.1c0-0.9-0.7-1.4-2.1-1.4h-2.8v2.8H37.6z"/>
		</g>
	</g>
</g>
<g>
	<g transform="translate(178.64053, 69.89667)">
		<g>
			<path d="M39.9-13.1v2.9h-1.2v-3l-3.4-5.5h1.3l2.7,4.5l2.7-4.5h1.2L39.9-13.1z"/>
		</g>
	</g>
</g>
<g>
	<g transform="translate(191.50707, 69.89667)">
		<g>
			<path d="M48.8-10.2l0-6.2l-3.1,5.1h-0.5l-3.1-5.1v6.2h-1.2v-8.5h1l3.5,6l3.5-6h1l0,8.5H48.8z"/>
		</g>
	</g>
</g>
<g>
	<g transform="translate(202.468276, 69.89667)">
		<g>
			<path d="M50.7-11.2v1.1h-6.2v-8.5h6v1.1h-4.8v2.6H50v1h-4.3v2.7H50.7z"/>
		</g>
	</g>
</g>
<g>
	<g transform="translate(210.832988, 69.89667)">
		<g>
			<path d="M47.3-18.7h1.2v7.4h4.6v1.1h-5.8V-18.7z"/>
		</g>
	</g>
</g>
<g>
	<g transform="translate(218.505294, 69.89667)">
		<g>
			<path d="M57.3-18.7l-3.7,8.5h-1.2l-3.8-8.5h1.3l3.1,7l3.1-7H57.3z"/>
		</g>
	</g>
</g>
<g>
	<g transform="translate(227.252647, 69.89667)">
		<g>
			<path d="M52.8-18.7h1.2v8.5h-1.2V-18.7z"/>
		</g>
	</g>
</g>
<g>
	<g transform="translate(232.33756, 69.89667)">
		<g>
			<path d="M61.8-18.7v8.5h-1l-5.1-6.3v6.3h-1.2v-8.5h1l5.1,6.3v-6.3H61.8z"/>
		</g>
	</g>
</g>
</svg>
